<svg xmlns="http://www.w3.org/2000/svg" width="950" height="707.864" viewBox="0 0 950 707.864">
  <g id="Group_66" data-name="Group 66" transform="translate(-830 -228)">
    <g id="Realtor-rafiki" transform="translate(830 173)">
      <g id="freepik--background-complete--inject-201" transform="translate(0 55)">
        <rect id="Rectangle_523" data-name="Rectangle 523" width="950" height="0.475" transform="translate(0 622.06)" fill="#ebebeb"/>
        <rect id="Rectangle_524" data-name="Rectangle 524" width="62.928" height="0.475" transform="translate(791.882 652.631)" fill="#ebebeb"/>
        <rect id="Rectangle_525" data-name="Rectangle 525" width="16.511" height="0.475" transform="translate(612.807 657.799)" fill="#ebebeb"/>
        <rect id="Rectangle_526" data-name="Rectangle 526" width="36.461" height="0.475" transform="translate(753.521 634.999)" fill="#ebebeb"/>
        <rect id="Rectangle_527" data-name="Rectangle 527" width="82.061" height="0.475" transform="translate(99.674 638.191)" fill="#ebebeb"/>
        <rect id="Rectangle_528" data-name="Rectangle 528" width="12.027" height="0.475" transform="translate(198.664 638.191)" fill="#ebebeb"/>
        <rect id="Rectangle_529" data-name="Rectangle 529" width="177.992" height="0.475" transform="translate(249.793 646.209)" fill="#ebebeb"/>
        <path id="Path_216" data-name="Path 216" d="M415.911,592.32H49.04a10.849,10.849,0,0,1-10.83-10.849V65.754A10.849,10.849,0,0,1,49.04,55H415.911A10.849,10.849,0,0,1,426.76,65.849V581.471A10.849,10.849,0,0,1,415.911,592.32ZM49.04,55.38A10.374,10.374,0,0,0,38.685,65.754V581.471A10.374,10.374,0,0,0,49.04,591.845H415.911a10.393,10.393,0,0,0,10.374-10.374V65.754A10.393,10.393,0,0,0,415.911,55.38Z" transform="translate(34.389 -55)" fill="#ebebeb"/>
        <path id="Path_217" data-name="Path 217" d="M632.239,592.32H265.349A10.868,10.868,0,0,1,254.5,581.471V65.754A10.868,10.868,0,0,1,265.349,55h366.89A10.849,10.849,0,0,1,643.05,65.754V581.471A10.849,10.849,0,0,1,632.239,592.32ZM265.349,55.38a10.393,10.393,0,0,0-10.374,10.374V581.471a10.393,10.393,0,0,0,10.374,10.374h366.89a10.393,10.393,0,0,0,10.374-10.374V65.754A10.393,10.393,0,0,0,632.239,55.38Z" transform="translate(229.05 -55)" fill="#ebebeb"/>
        <ellipse id="Ellipse_99" data-name="Ellipse 99" cx="104.861" cy="80.636" rx="104.861" ry="80.636" transform="translate(633.669 336.3)" fill="#ebebeb"/>
        <ellipse id="Ellipse_100" data-name="Ellipse 100" cx="82.897" cy="63.764" rx="82.897" ry="63.764" transform="translate(633.688 268.603)" fill="#ebebeb"/>
        <path id="Path_218" data-name="Path 218" d="M448.782,90.517s13.7-11.837-4.085-14.668c-32.3-5.149-61.5,10.944-65.208,13.091,3.8-7.467,1.1-13.3-18.373-11.191-15.333,1.615-56.506,22.1-56.506,22.1H505.858C533.655,74.861,448.782,90.517,448.782,90.517Z" transform="translate(274.149 -37.146)" fill="#f0f0f0"/>
        <path id="Path_219" data-name="Path 219" d="M136.418,136.17s11.286-8.778,1.672-10.868c-17.423-3.8-38.969,8.113-41.8,9.69,4.313-5.529,4.275-9.785-7.6-8.284-9.5,1.2-39.14,16.359-39.14,16.359H167.2C190.359,124.561,136.418,136.17,136.418,136.17Z" transform="translate(44.595 7.603)" fill="#f0f0f0"/>
        <path id="Path_220" data-name="Path 220" d="M453.6,125.355s8.018-6.232,1.2-7.733c-12.388-2.7-27.7,5.7-29.659,6.9,3.078-3.933,3.04-6.954-5.434-5.89-6.688.855-27.816,11.628-27.816,11.628h83.6C491.925,117.109,453.6,125.355,453.6,125.355Z" transform="translate(352.701 0.881)" fill="#f5f5f5"/>
        <ellipse id="Ellipse_101" data-name="Ellipse 101" cx="56.202" cy="43.225" rx="56.202" ry="43.225" transform="translate(154.489 491.055)" fill="#ebebeb"/>
        <path id="Path_221" data-name="Path 221" d="M127.53,341.29c-40.964,0-74.1,34.96-74.1,78.109H201.763C201.706,376.25,168.513,341.29,127.53,341.29Z" transform="translate(48.087 202.661)" fill="#ebebeb"/>
        <rect id="Rectangle_530" data-name="Rectangle 530" width="329.384" height="403.351" transform="translate(213.256 218.709)" fill="#f0f0f0"/>
        <rect id="Rectangle_531" data-name="Rectangle 531" width="194.123" height="403.351" transform="translate(736.744 622.06) rotate(180)" fill="#e6e6e6"/>
        <rect id="Rectangle_532" data-name="Rectangle 532" width="73.321" height="140.03" transform="translate(676.362 397.575) rotate(180)" fill="#f5f5f5"/>
        <rect id="Rectangle_533" data-name="Rectangle 533" width="73.321" height="84.436" transform="translate(477.736 323.836) rotate(180)" fill="#f5f5f5"/>
        <rect id="Rectangle_534" data-name="Rectangle 534" width="73.321" height="84.436" transform="translate(351.481 323.836) rotate(180)" fill="#f5f5f5"/>
        <rect id="Rectangle_535" data-name="Rectangle 535" width="73.321" height="15.618" transform="translate(477.736 355.091) rotate(180)" fill="#f5f5f5"/>
        <rect id="Rectangle_536" data-name="Rectangle 536" width="73.321" height="15.618" transform="translate(351.481 355.091) rotate(180)" fill="#f5f5f5"/>
        <rect id="Rectangle_537" data-name="Rectangle 537" width="194.123" height="175.56" transform="translate(736.744 622.06) rotate(180)" fill="#f5f5f5"/>
        <rect id="Rectangle_538" data-name="Rectangle 538" width="61.313" height="85.633" transform="translate(707.028 559.512) rotate(180)" fill="#e6e6e6"/>
        <rect id="Rectangle_539" data-name="Rectangle 539" width="61.313" height="85.633" transform="translate(633.688 559.512) rotate(180)" fill="#e6e6e6"/>
        <rect id="Rectangle_540" data-name="Rectangle 540" width="329.384" height="175.56" transform="translate(213.256 446.5)" fill="#fafafa"/>
        <rect id="Rectangle_541" data-name="Rectangle 541" width="71.915" height="142.88" transform="translate(266.874 469.3)" fill="#e6e6e6"/>
        <path id="Path_222" data-name="Path 222" d="M393.024,104H198.92L363.612,229.609h194.1Z" transform="translate(179.028 -10.9)" fill="#f0f0f0"/>
        <rect id="Rectangle_542" data-name="Rectangle 542" width="54.036" height="111.036" transform="translate(287.793 78.109)" fill="#ebebeb"/>
        <path id="Path_223" data-name="Path 223" d="M276.932,104,112.24,229.609H441.624Z" transform="translate(101.016 -10.9)" fill="#fafafa"/>
        <path id="Path_224" data-name="Path 224" d="M261.92,116.72l-133,101.441h266Z" transform="translate(116.028 0.548)" fill="#f0f0f0"/>
        <path id="Path_225" data-name="Path 225" d="M367.514,253.78H144.587L94.56,303.807V322.6h323V303.807Z" transform="translate(85.104 123.902)" fill="#e6e6e6"/>
        <rect id="Rectangle_543" data-name="Rectangle 543" width="557.099" height="19.76" transform="translate(179.664 602.3)" fill="#e6e6e6"/>
        <rect id="Rectangle_544" data-name="Rectangle 544" width="221.958" height="68.02" transform="translate(320.682 534.28)" fill="#f0f0f0"/>
        <rect id="Rectangle_545" data-name="Rectangle 545" width="13.091" height="155.8" transform="translate(441.009 446.5)" fill="#e6e6e6"/>
        <rect id="Rectangle_546" data-name="Rectangle 546" width="13.091" height="155.8" transform="translate(189.791 446.5)" fill="#e6e6e6"/>
      </g>
      <g id="freepik--Shadow--inject-201" transform="translate(106.609 719.848)">
        <ellipse id="freepik--path--inject-201" cx="368.391" cy="21.508" rx="368.391" ry="21.508" fill="#f5f5f5"/>
      </g>
      <g id="freepik--Sign--inject-201" transform="translate(519.479 389.115)">
        <rect id="Rectangle_547" data-name="Rectangle 547" width="26.429" height="357.941" fill="#d98209"/>
        <rect id="Rectangle_548" data-name="Rectangle 548" width="26.429" height="357.941" fill="#fff" opacity="0.3"/>
        <rect id="Rectangle_549" data-name="Rectangle 549" width="26.429" height="357.941" transform="translate(26.429)" fill="#d98209"/>
        <rect id="Rectangle_550" data-name="Rectangle 550" width="26.429" height="357.941" transform="translate(26.429)" fill="#fff" opacity="0.5"/>
        <rect id="Rectangle_551" data-name="Rectangle 551" width="206.967" height="25.175" transform="translate(35.112 20.387)" fill="#d98209"/>
        <rect id="Rectangle_552" data-name="Rectangle 552" width="206.967" height="25.175" transform="translate(35.112 20.387)" fill="#fff" opacity="0.3"/>
        <rect id="Rectangle_553" data-name="Rectangle 553" width="18.183" height="25.175" transform="translate(242.079 20.387)" fill="#d98209"/>
        <rect id="Rectangle_554" data-name="Rectangle 554" width="18.183" height="25.175" transform="translate(242.079 20.387)" fill="#fff" opacity="0.5"/>
        <rect id="Rectangle_555" data-name="Rectangle 555" width="156.56" height="149.682" transform="translate(68.989 45.562)" fill="#d98209"/>
        <rect id="Rectangle_556" data-name="Rectangle 556" width="5.51" height="149.682" transform="translate(220.039 45.562)" opacity="0.2"/>
        <path id="Path_226" data-name="Path 226" d="M324.33,271.48h24.7v6.935H334.4v5.7h12.5v6.517H334.4v13.186H324.368Z" transform="translate(-227.582 -194.283)" fill="#fff"/>
        <path id="Path_227" data-name="Path 227" d="M339.52,287.957a15.2,15.2,0,0,1,16.663-16.72,16.872,16.872,0,0,1,12.426,4.332,16.321,16.321,0,0,1,4.351,12.122,19.911,19.911,0,0,1-1.9,9.291,13.546,13.546,0,0,1-5.51,5.7,18.048,18.048,0,0,1-8.968,2.014,20.69,20.69,0,0,1-9.044-1.729,13.661,13.661,0,0,1-5.795-5.51,18.26,18.26,0,0,1-2.223-9.5Zm9.975,0a10.925,10.925,0,0,0,1.805,7.03,6.916,6.916,0,0,0,9.937,0c1.159-1.387,1.748-3.9,1.748-7.6a9.975,9.975,0,0,0-1.9-6.65,6.289,6.289,0,0,0-5-2.109,6.042,6.042,0,0,0-4.845,2.128,10.887,10.887,0,0,0-1.748,7.2Z" transform="translate(-213.987 -194.573)" fill="#fff"/>
        <path id="Path_228" data-name="Path 228" d="M360,303.777v-32.3h16.625a24.035,24.035,0,0,1,7.068.8,7.41,7.41,0,0,1,3.933,2.945,8.835,8.835,0,0,1,1.5,5.225,8.588,8.588,0,0,1-4.294,7.79,11.687,11.687,0,0,1-3.5,1.273,9.763,9.763,0,0,1,2.584,1.2,9.5,9.5,0,0,1,1.6,1.691,13.385,13.385,0,0,1,1.406,2.014l4.826,9.348H380.482l-5.282-9.842a7.356,7.356,0,0,0-1.9-2.432,4.218,4.218,0,0,0-2.432-.741h-.893v13.091Zm10.013-19.19h4.218a15.848,15.848,0,0,0,2.641-.437,2.66,2.66,0,0,0,1.615-1.026,2.945,2.945,0,0,0,.627-1.9,3.059,3.059,0,0,0-.988-2.413,6.06,6.06,0,0,0-3.8-.836h-4.389Z" transform="translate(-195.479 -194.299)" fill="#fff"/>
        <path id="Path_229" data-name="Path 229" d="M316.14,321.886l9.5-.589a7.069,7.069,0,0,0,1.273,3.515,5.244,5.244,0,0,0,4.389,1.9,4.939,4.939,0,0,0,3.306-.988,3.021,3.021,0,0,0,1.14-2.337,2.945,2.945,0,0,0-1.1-2.242,12.938,12.938,0,0,0-5.092-1.9,21.661,21.661,0,0,1-9.367-3.933,7.828,7.828,0,0,1-2.812-6.213,8.416,8.416,0,0,1,1.444-4.712,9.348,9.348,0,0,1,4.332-3.477,20.426,20.426,0,0,1,7.942-1.273,16.3,16.3,0,0,1,9.5,2.3,10.013,10.013,0,0,1,3.8,7.334l-9.405.551a4.389,4.389,0,0,0-4.883-4.161,3.99,3.99,0,0,0-2.622.741,2.223,2.223,0,0,0-.893,1.786,1.9,1.9,0,0,0,.741,1.387,8.324,8.324,0,0,0,3.344,1.2,41.077,41.077,0,0,1,9.367,2.85,9.729,9.729,0,0,1,4.1,3.572,8.949,8.949,0,0,1,1.292,4.769,10.318,10.318,0,0,1-1.71,5.7,10.793,10.793,0,0,1-4.807,3.971,19.532,19.532,0,0,1-7.771,1.349c-5.491,0-9.291-1.045-11.4-3.173a12.521,12.521,0,0,1-3.61-7.923Z" transform="translate(-234.953 -168.974)" fill="#fff"/>
        <path id="Path_230" data-name="Path 230" d="M355.611,326.93h-11.4l-1.577,5.32H332.45l12.141-32.3h10.868l12.236,32.4h-10.45Zm-2.071-6.992-3.553-11.59-3.534,11.59Z" transform="translate(-220.274 -168.66)" fill="#fff"/>
        <path id="Path_231" data-name="Path 231" d="M352.66,300h9.975v24.339H378.2V332.3H352.66Z" transform="translate(-202.085 -168.615)" fill="#fff"/>
        <path id="Path_232" data-name="Path 232" d="M368.47,300H395.2v6.9h-16.72v5.13h15.523v6.593H378.483v6.365H395.7V332.3H368.47Z" transform="translate(-187.856 -168.615)" fill="#fff"/>
      </g>
      <g id="freepik--Character--inject-201" transform="translate(275.746 101.229)">
        <path id="Path_233" data-name="Path 233" d="M275.183,164.8l-2.869,3.8c-.931,1.2-1.9,2.356-2.869,3.515-1.9,2.318-3.914,4.56-5.928,6.8-4.066,4.427-8.284,8.778-12.9,12.92a130.7,130.7,0,0,1-14.991,11.989,82.425,82.425,0,0,1-9.082,5.4,51.145,51.145,0,0,1-11.666,4.294l-.817.171a12.106,12.106,0,0,1-2.147.285,25.194,25.194,0,0,1-11.4-2.356,31.823,31.823,0,0,1-6.8-4.237,57.987,57.987,0,0,1-8.569-8.626,119.07,119.07,0,0,1-11.4-17.1c-3.154-5.7-5.947-11.514-8.474-17.385a185.52,185.52,0,0,1-6.764-17.936,8.683,8.683,0,0,1,15.2-7.79l.171.228c3.515,4.731,7.068,9.69,10.64,14.421s7.144,9.5,10.83,13.889a120.5,120.5,0,0,0,11.039,11.989,26.81,26.81,0,0,0,4.959,3.8c.646.342,1.14.475,1.1.38s-.76-.57-2.489-.532l-2.964.456a30.4,30.4,0,0,0,3.8-2.223c1.6-1.1,3.382-2.375,5.149-3.8s3.591-3.1,5.377-4.807,3.629-3.458,5.434-5.282c3.572-3.8,7.163-7.6,10.659-11.533l5.225-6,5.016-5.89.475-.551a17.328,17.328,0,0,1,26.961,21.755Z" transform="translate(-133.423 -29.09)" fill="#263238"/>
        <path id="Path_234" data-name="Path 234" d="M185.012,143.1c-1.083-8.55-16.606-12.5-16.606-12.5l-9.063-4.009a6.84,6.84,0,0,0-8.512,2.508l-4.617,7.068a6.878,6.878,0,0,0,2.09,9.5l8.322,5.206a12.445,12.445,0,0,0,4.9,1.748l7.068.912a15.808,15.808,0,0,0,15.333-7.144l.437-.665a4.123,4.123,0,0,0,.646-2.622Z" transform="translate(-145.129 -37.331)" fill="#ffb573"/>
        <path id="Path_235" data-name="Path 235" d="M252.007,398.4c24.7-78.413,43.871-173.831,43.871-173.831l-74.385-7.315s-4.883,122.778-9.5,177.156C207.167,450.931,188.3,582.24,188.3,582.24l22.61,1.9S249.727,468.6,252.007,398.4Z" transform="translate(-106.276 44.796)" fill="#263238"/>
        <path id="Path_236" data-name="Path 236" d="M233.385,254.82l10.336,18.449c-5.282,21.527-11.4,45.2-18.221,68.4C226.45,305.265,230.25,263.275,233.385,254.82Z" transform="translate(-72.796 78.609)"/>
        <path id="Path_237" data-name="Path 237" d="M173.26,415.493s31.977-2.622,35.036-7.163l17.2,2.6-2.831,18.126-10.6-1.6-1.368-1.9-2.945,1.273c-8.55-1.311-31.35-5.073-36.4-7.733A4.066,4.066,0,0,1,173.26,415.493Z" transform="translate(-121.541 216.767)" fill="#263238"/>
        <path id="Path_238" data-name="Path 238" d="M293.522,392.856c-1.311-80.617,3.8-134.5-3.059-174.23L222.5,217.6s16.7,127.908,25,181.165S266.371,583.54,266.371,583.54h21.014S305.663,455.233,293.522,392.856Z" transform="translate(-75.496 45.111)" fill="#263238"/>
        <path id="Path_239" data-name="Path 239" d="M235.532,421.873s20.159-7.353,22.8-12.293h17.4l-1.311,18.354H260.213l-1.539-1.691-2.812,1.691c-8.683,0-16.644-.342-21.964-2.3A4.313,4.313,0,0,1,235.532,421.873Z" transform="translate(-65.252 217.892)" fill="#263238"/>
        <path id="Path_240" data-name="Path 240" d="M307,134.419c-24.035-2.983-58.387-2.7-81.415,1.273a27.854,27.854,0,0,0-22.61,23.446c-4.845,34.77-.684,95.551,2.413,156.731,52.592,17.993,108.091-.247,108.091-.247,1.9-12.35-2.394-52.782-5.3-74.366,4.351-22.287,13.547-47.823,19.627-77.425A24.244,24.244,0,0,0,307,134.419Z" transform="translate(-95.059 -31.556)" fill="#263238"/>
        <path id="Path_241" data-name="Path 241" d="M227.239,134.265c-2.888,2.907-4.807,7.486-5.833,13.3-2.47,14.117.323,35.872,7.771,60.8,7.125-20.1,22.458-46.7,31.882-62.149,4.465-7.315,7.6-12.16,7.866-12.578h0a86.868,86.868,0,0,0-41.686.627Z" transform="translate(-77.271 -32.466)" fill="#e0e0e0"/>
        <path id="Path_242" data-name="Path 242" d="M262.762,109.3l-27.379,22.458c3.553,9.4,4.674,19.209-10.792,22.99-3.8,5.111,2.964,10.963,9.348,13.623,10.317-1.273,24.871-4.712,31.16-13.3C263.1,148.231,260.1,123.227,262.762,109.3Z" transform="translate(-74.604 -52.359)" fill="#ffb573"/>
        <path id="Path_243" data-name="Path 243" d="M225.55,139.363a20.786,20.786,0,0,0,5.7,8.55c4.18,0,10.279-4.693,10.279-4.693s-2.356-6.631-5.7-7.98C227.374,137.33,225.55,139.363,225.55,139.363Z" transform="translate(-72.751 -29.013)" fill="#d98209"/>
        <path id="Path_244" data-name="Path 244" d="M238.6,140.994a6,6,0,0,0-4.617-1.178c-5.472,7.771-8.949,19.855-12.331,33.8a235.286,235.286,0,0,0,6.517,27.417,214.971,214.971,0,0,1,10.64-24.187A144.135,144.135,0,0,1,238.6,140.994Z" transform="translate(-76.261 -24.963)" fill="#d98209"/>
        <path id="Path_245" data-name="Path 245" d="M245.7,114.23,229.76,127.3a35.741,35.741,0,0,1,1.9,6.745c6.175.437,14.763-5.814,15.2-11.4A23.219,23.219,0,0,0,245.7,114.23Z" transform="translate(-68.962 -47.922)" opacity="0.2"/>
        <path id="Path_246" data-name="Path 246" d="M226.948,89c-11.932,11.761-4.1,30.571-4.1,30.571S243.706,82.347,226.948,89Z" transform="translate(-77.455 -71.348)" fill="#263238"/>
        <path id="Path_247" data-name="Path 247" d="M270.248,114.313c-2.489,17.1-3.078,27.341-12.54,35.4-14.231,12.122-34.884,2.261-37.582-15.352-2.413-15.865,2.071-41.268,19.551-46.588a23.9,23.9,0,0,1,30.571,26.543Z" transform="translate(-78.176 -72.667)" fill="#ffb573"/>
        <path id="Path_248" data-name="Path 248" d="M272.619,129.774c-12.863,2.641-16.587-7.315-16.587-7.315a19.418,19.418,0,0,0,7.9,0s-8.664-8.854-1.9-17.423c-3.534-3.8-19.266-2.166-26.6,0-8.018-3.021-12.141-4.427-16.416-13.946a20.292,20.292,0,0,0,11.685-1.444c7.98-3.667-3.99-6.365-3.99-6.365a57.552,57.552,0,0,1,28.88-3.4C274.215,82.5,277.1,88.031,276.381,94.3c9.747-.114,10.716,10.735,10.716,10.735a9.5,9.5,0,0,0-4.066-1.9C283.582,106.442,285.482,125.841,272.619,129.774Z" transform="translate(-78.628 -79.331)" fill="#263238"/>
        <path id="Path_249" data-name="Path 249" d="M247.82,94.378c3.572-1.615,4.655-10.146,2.546-13.718C259.923,90.806,253.026,94.948,247.82,94.378Z" transform="translate(-52.708 -78.135)" fill="#263238"/>
        <path id="Path_250" data-name="Path 250" d="M256.6,112.953a14.915,14.915,0,0,1-8.322,7.9c-4.959,1.9-7.923-2.47-6.954-7.372.874-4.427,4.5-10.7,9.671-10.431a6.8,6.8,0,0,1,5.6,9.9Z" transform="translate(-58.717 -57.988)" fill="#ffb573"/>
        <path id="Path_251" data-name="Path 251" d="M235.132,102.861c-.114,1.406-.969,2.47-1.9,2.394s-1.577-1.292-1.444-2.7.95-2.489,1.9-2.394S235.246,101.455,235.132,102.861Z" transform="translate(-67.152 -60.588)" fill="#263238"/>
        <path id="Path_252" data-name="Path 252" d="M226.28,102.64c-.114,1.406-.95,2.489-1.9,2.394s-1.558-1.292-1.444-2.7.95-2.47,1.9-2.394S226.395,101.234,226.28,102.64Z" transform="translate(-75.115 -60.785)" fill="#263238"/>
        <path id="Path_253" data-name="Path 253" d="M230.134,102.36s-3.8,7.809-7.714,11.4c2.3,2.546,6.612,1.9,6.612,1.9Z" transform="translate(-75.568 -58.605)" fill="#ed893e"/>
        <path id="Path_254" data-name="Path 254" d="M238.443,102.31a1.007,1.007,0,0,0,.418,0,.817.817,0,0,0,.456-1.083,8.36,8.36,0,0,0-5.7-5.13.833.833,0,0,0-.323,1.634h0a6.574,6.574,0,0,1,4.408,4.1A.817.817,0,0,0,238.443,102.31Z" transform="translate(-66.378 -64.255)" fill="#263238"/>
        <path id="Path_255" data-name="Path 255" d="M220.824,100.049a.836.836,0,0,0,.779-.114,6.517,6.517,0,0,1,5.852-1.159.817.817,0,0,0,1.064-.494.836.836,0,0,0-.494-1.064,8.151,8.151,0,0,0-7.41,1.387.836.836,0,0,0,.209,1.444Z" transform="translate(-77.487 -63.552)" fill="#263238"/>
        <path id="Path_256" data-name="Path 256" d="M259.509,132.61h0c-.285.418-3.4,5.263-7.866,12.578a34.675,34.675,0,0,1-15.96,8.379c.874-2.945-1.767-12.92-4.693-16C237.887,137.968,247.387,136.79,259.509,132.61Z" transform="translate(-67.855 -31.38)" fill="#fafafa"/>
        <path id="Path_257" data-name="Path 257" d="M239.973,137.31a25.555,25.555,0,0,0-13.737,14.63,9.5,9.5,0,0,1-5.206-5.7c1.026-5.871,2.945-10.45,5.833-13.3C228.4,134.954,232.753,136.854,239.973,137.31Z" transform="translate(-76.819 -31.083)" fill="#fafafa"/>
        <path id="Path_258" data-name="Path 258" d="M287.023,147.075c1.406,3.059,2.584,5.7,3.8,8.683s2.28,5.7,3.382,8.664c2.128,5.814,4.123,11.7,5.871,17.784a181.4,181.4,0,0,1,4.522,18.81c.608,3.268,1.121,6.65,1.463,10.222A72.426,72.426,0,0,1,306.194,223a57.722,57.722,0,0,1-7.2,22.42,105.585,105.585,0,0,1-11.4,16.72A155.391,155.391,0,0,1,274.5,276.1a142.633,142.633,0,0,1-14.63,12.1,8.683,8.683,0,0,1-12.236-11.932l.285-.4,4.769-7.011c1.615-2.356,3.154-4.769,4.693-7.163,3.021-4.769,5.966-9.5,8.493-14.364a102.434,102.434,0,0,0,6.479-14.117,47.5,47.5,0,0,0,1.9-6.536,19.4,19.4,0,0,0,.475-5.187,42.432,42.432,0,0,0-.855-6.023c-.456-2.318-1.007-4.788-1.691-7.315-1.406-5.054-3.078-10.3-4.9-15.561s-3.8-10.564-5.833-15.865l-6.156-15.751-.152-.361a17.347,17.347,0,0,1,31.92-13.547Z" transform="translate(-54.215 -27.415)" fill="#263238"/>
        <path id="Path_259" data-name="Path 259" d="M221.141,193.267a38.741,38.741,0,0,0,41.61,64.98l4.75,6.08-.874,3.8L276.716,281.1l5.51.114-1.5,6.4,19.8,25.46,10.64.19,3.572,4.617-1.767,7.6L326.1,342.36l11.134.209,1.9-11.951L275.12,248.329h0a38.741,38.741,0,0,0-53.9-54.967Zm16.378,21.052a9.861,9.861,0,1,1,1.71-13.832,9.861,9.861,0,0,1-1.71,13.832Z" transform="translate(-90.192 15.921)" fill="#d98209"/>
        <path id="Path_260" data-name="Path 260" d="M271.789,218.231a3.952,3.952,0,0,0-1.615-2.242l-6.707-4.636a4.18,4.18,0,0,0-4.427-.209l-6.023,3.439a46.892,46.892,0,0,0-14.877,13.3l-1.311,1.9a6.859,6.859,0,0,0,1.691,9.652l6.954,4.788a6.859,6.859,0,0,0,8.835-.912l6.8-7.258S274.031,226.553,271.789,218.231Z" transform="translate(-63.757 38.818)" fill="#ffb573"/>
        <path id="Path_261" data-name="Path 261" d="M252,209a31.884,31.884,0,0,0-8.208,5.054c.874,5.339,15.751,14.231,20.767,14.345,2.033-1.9,4.712-9.709,4.712-9.709C263.645,216.258,256.064,210.9,252,209Z" transform="translate(-56.335 37.371)" fill="#e0e0e0"/>
        <path id="Path_262" data-name="Path 262" d="M178.809,143.564a31.671,31.671,0,0,0-1.254-9.5c-5.225-1.406-19.418,8.55-21.565,13.11.931,2.641,6.916,8.246,6.916,8.246C167.409,151.164,175.389,146.414,178.809,143.564Z" transform="translate(-135.355 -30.193)" fill="#e0e0e0"/>
        <path id="Path_263" data-name="Path 263" d="M245.669,416.477l23.332.665,2.432-13.262-27.3,1.634Z" transform="translate(-56.029 212.762)" fill="#d98209"/>
        <path id="Path_264" data-name="Path 264" d="M187.72,415.614l24.947,3.857,4.218-11.02L189.24,402.2Z" transform="translate(-106.798 211.25)" fill="#d98209"/>
        <path id="Path_265" data-name="Path 265" d="M230.774,114.243a14.668,14.668,0,0,1-2.7-.133.437.437,0,0,1-.361-.532.532.532,0,0,1,.57-.418,13.471,13.471,0,0,0,11.21-3.515.494.494,0,0,1,.684,0,.475.475,0,0,1,0,.665A14.193,14.193,0,0,1,230.774,114.243Z" transform="translate(-70.812 -52.173)" fill="#263238"/>
      </g>
      <g id="freepik--House--inject-201" transform="translate(160.987 61.746)">
        <path id="Path_266" data-name="Path 266" d="M274.254,89.112,216.779,84.5,167.968,60.27l-53.5,16-7.714,96.045,159.79,12.844Z" transform="translate(-64.912 -57.003)" fill="#d98209"/>
        <path id="Path_267" data-name="Path 267" d="M110.019,143.8,84.73,141.764,87.9,102.32l3.021.247L88,138.99l22.268,1.786Z" transform="translate(-84.73 -19.158)" fill="#d98209"/>
        <rect id="Rectangle_557" data-name="Rectangle 557" width="3.05" height="19.823" transform="translate(36.977 124.835) rotate(-85.426)" fill="#d98209"/>
        <rect id="Rectangle_558" data-name="Rectangle 558" width="36.423" height="35.378" transform="matrix(0.997, 0.08, -0.08, 0.997, 14.26, 77.601)" fill="#d98209"/>
        <path id="Path_268" data-name="Path 268" d="M109.86,141.027l31.844,2.565,3.857-48.032-32.87,10.184Z" transform="translate(-62.113 -25.242)" opacity="0.2"/>
        <rect id="Rectangle_559" data-name="Rectangle 559" width="57.665" height="96.349" transform="matrix(0.997, 0.08, -0.08, 0.997, 151.865, 27.53)" opacity="0.2"/>
        <path id="Path_269" data-name="Path 269" d="M196.445,64.887,138.97,60.27,187.781,84.5l57.475,4.617Z" transform="translate(-35.914 -57.003)" fill="#263238"/>
        <path id="Path_270" data-name="Path 270" d="M246.694,93.6h-.247l-57.475-4.617a3.21,3.21,0,0,1-1.1-.323L139.059,64.431a3.04,3.04,0,0,1-1.577-3.534,3.078,3.078,0,0,1,3.173-2.223l57.475,4.617a3.306,3.306,0,0,1,1.121.323L248.043,87.8a3.04,3.04,0,0,1-1.349,5.7Zm-56.658-10.64,41.192,3.325-34.2-16.967-41.192-3.325Z" transform="translate(-37.352 -58.447)" fill="#263238"/>
        <path id="Path_271" data-name="Path 271" d="M125.12,94.03l36.29,2.907-32.87,10.184-36.29-2.907Z" transform="translate(-77.962 -26.619)" fill="#263238"/>
        <path id="Path_272" data-name="Path 272" d="M129.453,109.948H129.3l-36.309-2.926a1.9,1.9,0,0,1-.3-3.743l32.87-10.2a1.9,1.9,0,0,1,.722,0L162.57,96a1.915,1.915,0,0,1,.418,3.743l-32.87,10.184A1.9,1.9,0,0,1,129.453,109.948Zm-26.22-5.966,26.011,2.09,23.009-7.125-26.011-2.09Z" transform="translate(-78.875 -27.509)" fill="#263238"/>
        <line id="Line_26" data-name="Line 26" x1="52.041" y2="16.112" transform="translate(51.015 3.267)" fill="#263238"/>
        <path id="Path_273" data-name="Path 273" d="M113,80.969a3.04,3.04,0,0,1-.912-5.928l52.06-16.131a3.04,3.04,0,1,1,1.786,5.7L113.9,80.741a3,3,0,0,1-.893.228Z" transform="translate(-61.988 -58.551)" fill="#263238"/>
        <rect id="Rectangle_560" data-name="Rectangle 560" width="20.814" height="37.874" transform="translate(102.13 82.795) rotate(4.574)" fill="#fff" opacity="0.6"/>
        <rect id="Rectangle_561" data-name="Rectangle 561" width="48.792" height="29.336" transform="matrix(0.997, 0.08, -0.08, 0.997, 76.179, 33.173)" fill="#fff"/>
        <rect id="Rectangle_562" data-name="Rectangle 562" width="20.539" height="25.46" transform="matrix(0.997, 0.08, -0.08, 0.997, 77.825, 35.256)" fill="#d98209"/>
        <rect id="Rectangle_563" data-name="Rectangle 563" width="20.539" height="25.46" transform="matrix(0.997, 0.08, -0.08, 0.997, 102.383, 37.239)" fill="#d98209"/>
        <rect id="Rectangle_564" data-name="Rectangle 564" width="27.265" height="29.336" transform="matrix(0.997, 0.08, -0.08, 0.997, 166.762, 40.477)" fill="#fff"/>
        <rect id="Rectangle_565" data-name="Rectangle 565" width="11.476" height="25.46" transform="matrix(0.997, 0.08, -0.08, 0.997, 167.597, 42.493)" fill="#d98209"/>
        <rect id="Rectangle_566" data-name="Rectangle 566" width="11.476" height="25.46" transform="matrix(0.997, 0.08, -0.08, 0.997, 181.316, 43.589)" fill="#d98209"/>
        <rect id="Rectangle_567" data-name="Rectangle 567" width="27.265" height="29.336" transform="matrix(0.997, 0.08, -0.08, 0.997, 162.989, 87.202)" fill="#fff"/>
        <rect id="Rectangle_568" data-name="Rectangle 568" width="11.476" height="25.46" transform="matrix(0.997, 0.08, -0.08, 0.997, 163.824, 89.217)" fill="#d98209"/>
        <rect id="Rectangle_569" data-name="Rectangle 569" width="11.513" height="25.541" transform="translate(178.689 90.898) rotate(4.574)" fill="#d98209"/>
      </g>
    </g>
    <rect id="Rectangle_601" data-name="Rectangle 601" width="139" height="129" transform="translate(1421 617)" fill="#d98209"/>
    <text id="FOR_RENT" data-name="FOR 
RENT" transform="translate(1429 621)" fill="#fff" font-size="45" font-family="OpenSans-Bold, Open Sans" font-weight="700"><tspan x="0" y="48">FOR </tspan><tspan x="0" y="109">RENT</tspan></text>
  </g>
</svg>
