<svg xmlns="http://www.w3.org/2000/svg" width="122" height="95.857" viewBox="0 0 122 95.857">
  <path id="Path_87" data-name="Path 87" d="M1.5,16.821A13.071,13.071,0,0,1,14.571,3.75h95.857A13.071,13.071,0,0,1,123.5,16.821V86.536a13.071,13.071,0,0,1-13.071,13.071H14.571A13.071,13.071,0,0,1,1.5,86.536Zm8.714,58.444v11.27a4.359,4.359,0,0,0,4.357,4.357h95.857a4.357,4.357,0,0,0,4.357-4.357V75.265L99.158,59.643a8.714,8.714,0,0,0-12.316,0L81.73,64.75l5.635,5.635a4.357,4.357,0,1,1-6.158,6.158L51.23,46.572a8.714,8.714,0,0,0-12.316,0l-28.7,28.7ZM69.036,29.893a6.536,6.536,0,1,1,6.536,6.536A6.536,6.536,0,0,1,69.036,29.893Z" transform="translate(-1.5 -3.75)" fill="rgba(0,0,0,0.25)" fill-rule="evenodd"/>
</svg>
