<svg xmlns="http://www.w3.org/2000/svg" width="745.576" height="555.544" viewBox="0 0 745.576 555.544">
  <g id="Mail_sent-rafiki" data-name="Mail sent-rafiki" transform="translate(0 -55)">
    <g id="freepik--background-complete--inject-3" transform="translate(0 55)">
      <rect id="Rectangle_483" data-name="Rectangle 483" width="745.576" height="0.373" transform="translate(0 488.203)" fill="#e0e0e0"/>
      <rect id="Rectangle_484" data-name="Rectangle 484" width="51.296" height="0.373" transform="translate(511.853 503.995)" fill="#e0e0e0"/>
      <rect id="Rectangle_485" data-name="Rectangle 485" width="28.869" height="0.373" transform="translate(136.709 504.174)" fill="#e0e0e0"/>
      <rect id="Rectangle_486" data-name="Rectangle 486" width="58.513" height="0.373" transform="translate(315.766 503.309)" fill="#e0e0e0"/>
      <rect id="Rectangle_487" data-name="Rectangle 487" width="26.155" height="0.373" transform="translate(288.12 498)" fill="#e0e0e0"/>
      <rect id="Rectangle_488" data-name="Rectangle 488" width="79.016" height="0.373" transform="translate(554.068 498.194)" fill="#e0e0e0"/>
      <path id="Path_140" data-name="Path 140" d="M334.636,476.7H46.71a8.515,8.515,0,0,1-8.5-8.514V63.44A8.514,8.514,0,0,1,46.71,55H334.636a8.514,8.514,0,0,1,8.514,8.514V468.183A8.514,8.514,0,0,1,334.636,476.7ZM46.71,55.3a8.142,8.142,0,0,0-8.127,8.142V468.183a8.142,8.142,0,0,0,8.127,8.142H334.636a8.157,8.157,0,0,0,8.142-8.142V63.44a8.157,8.157,0,0,0-8.142-8.142Z" transform="translate(18.767 -55)" fill="#e0e0e0"/>
      <path id="Path_141" data-name="Path 141" d="M550.956,476.7H263.015a8.53,8.53,0,0,1-8.515-8.514V63.44A8.529,8.529,0,0,1,263.015,55H550.956a8.514,8.514,0,0,1,8.485,8.44V468.183A8.515,8.515,0,0,1,550.956,476.7ZM263.015,55.3a8.157,8.157,0,0,0-8.142,8.142V468.183a8.157,8.157,0,0,0,8.142,8.142H550.956a8.157,8.157,0,0,0,8.142-8.142V63.44a8.157,8.157,0,0,0-8.142-8.142Z" transform="translate(124.998 -55)" fill="#e0e0e0"/>
      <path id="Path_142" data-name="Path 142" d="M483.853,327.381c-18.341-27.929-1.6-57.946-4.384-89.022s-32.313-37.845-26.721-64.12c6.472-30.539-10.781-59.84-30.33-59.84s-36.787,29.227-30.315,59.8c5.592,26.319-23.858,33.1-26.721,64.12s13.957,61.137-4.4,89.022-13.525,64.91-3.191,83.266a71.171,71.171,0,0,0,9.871,13.495,74.841,74.841,0,0,0,109.525,0,71.767,71.767,0,0,0,9.856-13.495C497.393,392.291,502.209,355.37,483.853,327.381Z" transform="translate(171.225 -25.826)" fill="#e0e0e0"/>
      <path id="Path_143" data-name="Path 143" d="M401.165,271.44h0a9.275,9.275,0,0,1,9.275,9.275V436.9H391.89V280.715a9.275,9.275,0,0,1,9.275-9.275Z" transform="translate(192.478 51.305)" fill="#f0f0f0"/>
      <path id="Path_144" data-name="Path 144" d="M328.215,438H303V281.83a12.66,12.66,0,0,1,12.63-12.63h0a12.66,12.66,0,0,1,12.63,12.63Z" transform="translate(148.819 50.205)" fill="#e0e0e0"/>
      <circle id="Ellipse_94" data-name="Ellipse 94" cx="77.793" cy="77.793" r="77.793" transform="translate(386.611 290.491)" fill="#f0f0f0"/>
      <circle id="Ellipse_95" data-name="Ellipse 95" cx="30.658" cy="30.658" r="30.658" transform="translate(488.918 359.909) rotate(-76.05)" fill="#f0f0f0"/>
      <circle id="Ellipse_96" data-name="Ellipse 96" cx="18.147" cy="18.147" r="18.147" transform="translate(380.649 334.387) rotate(-80.75)" fill="#f0f0f0"/>
      <circle id="Ellipse_97" data-name="Ellipse 97" cx="12.734" cy="12.734" r="12.734" transform="translate(408.486 297.276)" fill="#f0f0f0"/>
      <path id="Path_145" data-name="Path 145" d="M271.546,334.507a84.324,84.324,0,0,0-33.879,12.928c-.089-11.81-2.252-23.008-7.8-32.06-8.44,8.216-15.284,18.863-20.876,30.315-2.043-21.458-7.694-42.334-20.205-55.56-18.744,11.8-28.406,31.448-33,52.265a94.644,94.644,0,0,0-32.015-34.565c-11.467,12.078-15.135,28.779-14.822,45.9-13.033-15.18-27.5-27.02-41.6-28.406-3.474,23.993,3.922,46.628,13.331,64.522a71.456,71.456,0,0,0,63.329,37.89h61.271c26.11,0,50.595-13.927,62.837-37C275.855,376.125,279.553,357.321,271.546,334.507Z" transform="translate(32.649 60.485)" fill="#e0e0e0"/>
      <path id="Path_146" data-name="Path 146" d="M256.488,124.645c7.56-22.173,1.491-37.965-16.954-37.965-11.6,0-25.991,6.218-40.008,16.328-1.581-5.771-6.039-9.215-13.212-9.215-12.63,0-30.032,10.677-43.676,25.737a20.876,20.876,0,0,0-14.226-5.741c-12.093-.686-26.721,5.458-39.441,15.433a6.874,6.874,0,0,0-5.607-2.878c-6.964-.388-16.4,5.816-21.07,13.838-.283.492-.537.984-.805,1.491H260.156C260.753,134.665,259.515,128.82,256.488,124.645Z" transform="translate(30.201 -39.44)" fill="#f0f0f0"/>
      <path id="Path_147" data-name="Path 147" d="M224.025,208.535c3.7-10.826.76-18.535-8.276-18.535-5.681,0-12.7,2.982-19.549,7.978a6.054,6.054,0,0,0-6.457-4.473c-6.158,0-14.658,5.219-21.338,12.585a10.125,10.125,0,0,0-6.949-2.8c-5.965-.343-13.048,2.654-19.266,7.53a3.355,3.355,0,0,0-2.669-1.432c-3.4-.194-8.007,2.833-10.289,6.755l-.4.716h97.044a12.183,12.183,0,0,0-1.849-8.321Z" transform="translate(63.275 11.306)" fill="#f0f0f0"/>
      <path id="Path_148" data-name="Path 148" d="M429.748,161.6a16.869,16.869,0,0,0-2.311-.164c.716-10.811-3.415-17.73-12.257-17.73-6.367,0-14.2,3.609-22.158,9.707,2.281-21-5.025-34.639-21.577-34.639-13.331,0-30.226,8.947-46.912,23.351-1.491-8.231-6.382-13.182-14.643-13.182-14.509,0-35.132,15.269-51.668,36.8h0a20.876,20.876,0,0,0-16.015-8.246c-13.808-.969-30.971,7.8-46.226,22.084a7.053,7.053,0,0,0-6.278-4.1c-7.56-.537-17.894,7.351-24.022,17.894H441.9C448.388,177.387,443.228,163.4,429.748,161.6Z" transform="translate(81.374 -23.679)" fill="#f0f0f0"/>
    </g>
    <g id="freepik--Shadow--inject-3" transform="translate(83.669 576.784)">
      <ellipse id="Ellipse_98" data-name="Ellipse 98" cx="289.12" cy="16.88" rx="289.12" ry="16.88" fill="#f5f5f5"/>
    </g>
    <g id="freepik--Mail--inject-3" transform="translate(72.858 113.056)">
      <path id="Path_149" data-name="Path 149" d="M48.86,150.56,388.8,199.5l45.614,46.032Z" transform="translate(-48.86 -66.121)" fill="#d98209"/>
      <path id="Path_150" data-name="Path 150" d="M48.86,150.56,388.8,199.5l45.614,46.032Z" transform="translate(-48.86 -66.121)" fill="#fff" opacity="0.6"/>
      <path id="Path_151" data-name="Path 151" d="M48.86,150.56,388.8,199.5l-15.776,66.565Z" transform="translate(-48.86 -66.121)" fill="#d98209"/>
      <path id="Path_152" data-name="Path 152" d="M48.86,150.56,388.8,199.5l-15.776,66.565Z" transform="translate(-48.86 -66.121)" opacity="0.2"/>
      <path id="Path_153" data-name="Path 153" d="M325.634,101.3l19.728,92.451a9.32,9.32,0,0,1-7.158,11.049L162.129,242.382a9.335,9.335,0,0,1-11.049-7.158l-19.743-92.451a9.335,9.335,0,0,1,7.172-11.049L314.584,94.147a9.335,9.335,0,0,1,11.049,7.172Z" transform="translate(-8.451 -93.928)" fill="#d98209"/>
      <path id="Path_154" data-name="Path 154" d="M325.634,101.3l19.728,92.451a9.32,9.32,0,0,1-7.158,11.049L162.129,242.382a9.335,9.335,0,0,1-11.049-7.158l-19.743-92.451a9.335,9.335,0,0,1,7.172-11.049L314.584,94.147a9.335,9.335,0,0,1,11.049,7.172Z" transform="translate(-8.451 -93.928)" opacity="0.4"/>
      <path id="Path_155" data-name="Path 155" d="M320.737,95.255l-58.826,72.217a37.92,37.92,0,0,1-46.449,9.916l-83.191-41.9a9.275,9.275,0,0,1,5.681-3.773L314.027,94.137A9.29,9.29,0,0,1,320.737,95.255Z" transform="translate(-7.893 -93.934)" fill="#d98209"/>
      <path id="Path_156" data-name="Path 156" d="M48.86,150.56,329.241,217.2l43.78,48.865Z" transform="translate(-48.86 -66.121)" fill="#d98209"/>
      <path id="Path_157" data-name="Path 157" d="M48.86,150.56,329.241,217.2l43.78,48.865Z" transform="translate(-48.86 -66.121)" fill="#fff" opacity="0.6"/>
      <rect id="Rectangle_489" data-name="Rectangle 489" width="1.491" height="36.16" transform="matrix(0.505, -0.863, 0.863, 0.505, 101.524, 149.956)" fill="#d98209"/>
      <rect id="Rectangle_490" data-name="Rectangle 490" width="1.491" height="13.003" transform="matrix(0.505, -0.863, 0.863, 0.505, 146.501, 176.29)" fill="#d98209"/>
      <path id="Path_158" data-name="Path 158" d="M48.86,150.56,329.241,217.2l-54.5,65.685Z" transform="translate(-48.86 -66.121)" fill="#d98209"/>
      <path id="Path_159" data-name="Path 159" d="M316.384,263.178a2.982,2.982,0,0,1-1.1-.209L269.622,244.9a2.982,2.982,0,1,1,2.192-5.547l45.674,18.073a2.982,2.982,0,0,1-1.1,5.756Z" transform="translate(58.641 -22.615)" fill="#d98209"/>
      <path id="Path_160" data-name="Path 160" d="M316.384,263.178a2.982,2.982,0,0,1-1.1-.209L269.622,244.9a2.982,2.982,0,1,1,2.192-5.547l45.674,18.073a2.982,2.982,0,0,1-1.1,5.756Z" transform="translate(58.641 -22.615)" opacity="0.3"/>
      <path id="Path_161" data-name="Path 161" d="M307.61,242.887a2.848,2.848,0,0,1-1.089-.224L281.992,232.9a2.982,2.982,0,1,1,2.192-5.547l24.529,9.722a3.02,3.02,0,0,1-1.1,5.815Z" transform="translate(64.716 -28.509)" fill="#d98209"/>
      <path id="Path_162" data-name="Path 162" d="M307.61,242.887a2.848,2.848,0,0,1-1.089-.224L281.992,232.9a2.982,2.982,0,1,1,2.192-5.547l24.529,9.722a3.02,3.02,0,0,1-1.1,5.815Z" transform="translate(64.716 -28.509)" fill="#fff" opacity="0.5"/>
      <path id="Path_163" data-name="Path 163" d="M279.811,262.79a3.132,3.132,0,0,1-1.089-.209L234.182,244.9a2.982,2.982,0,1,1,2.192-5.547l44.541,17.625a2.982,2.982,0,0,1-1.1,5.756Z" transform="translate(41.234 -22.615)" fill="#d98209"/>
      <path id="Path_164" data-name="Path 164" d="M279.811,262.79a3.132,3.132,0,0,1-1.089-.209L234.182,244.9a2.982,2.982,0,1,1,2.192-5.547l44.541,17.625a2.982,2.982,0,0,1-1.1,5.756Z" transform="translate(41.234 -22.615)" opacity="0.3"/>
    </g>
    <g id="freepik--Character--inject-3" transform="translate(388.699 136.223)">
      <path id="Path_165" data-name="Path 165" d="M377.192,164.82c3.952,7.709,7.575,15.433,11.02,23.337s6.651,15.911,9.454,24.306l1.014,3.176c.179.567.432,1.491.582,2.147s.283,1.4.358,2.028a52.664,52.664,0,0,1,.522,7.262,130.164,130.164,0,0,1-.626,13.42,214.968,214.968,0,0,1-4.056,25.678l-8.186-.91c-.1-8.4-.179-16.88-.477-25.156-.134-4.116-.373-8.246-.79-12.123a45.517,45.517,0,0,0-.895-5.413c-.075-.418-.194-.731-.283-1.074s-.179-.462-.328-.91l-1.133-2.818c-3.116-7.545-6.621-15.15-10.2-22.725L362.34,172.32Z" transform="translate(-210.735 -82.285)" fill="#e4897b"/>
      <path id="Path_166" data-name="Path 166" d="M380.4,230.42l-3.817,7.143,12.2,3.4s2.326-5.741-.447-10.274Z" transform="translate(-203.741 -50.065)" fill="#e4897b"/>
      <path id="Path_167" data-name="Path 167" d="M373.45,245.5l11.213.895,5.651-7.784-12.2-3.4Z" transform="translate(-205.278 -47.712)" fill="#e4897b"/>
      <path id="Path_168" data-name="Path 168" d="M338.559,130.849c-.164.88-.775,1.491-1.342,1.372s-.88-.91-.7-1.774.775-1.491,1.342-1.372S338.753,129.984,338.559,130.849Z" transform="translate(-223.443 -99.848)" fill="#263238"/>
      <path id="Path_169" data-name="Path 169" d="M339.272,131.26a31.823,31.823,0,0,1-5.651,6.576,5.129,5.129,0,0,0,3.981,1.61Z" transform="translate(-224.841 -98.768)" fill="#de5753"/>
      <path id="Path_170" data-name="Path 170" d="M342.091,128.333a.537.537,0,0,1-.373-.164,4.145,4.145,0,0,0-3.474-1.4.522.522,0,0,1-.179-1.014,5.07,5.07,0,0,1,4.474,1.715.522.522,0,0,1,0,.731.537.537,0,0,1-.447.134Z" transform="translate(-222.829 -101.492)" fill="#263238"/>
      <path id="Path_171" data-name="Path 171" d="M362.537,138.43c-1.566,8.022-3.131,22.7,2.475,28.049,0,0-2.192,8.127-17.089,8.127-16.4,0-7.814-8.127-7.814-8.127,8.947-2.132,8.693-8.768,7.143-14.986Z" transform="translate(-222.757 -95.246)" fill="#e4897b"/>
      <path id="Path_172" data-name="Path 172" d="M367.2,164.47c1.178-3.922,2.475-8.41-.209-9.827-2.982-1.491-19.191-3.131-24.783-.224s-4,10.885-4,10.885Z" transform="translate(-222.69 -88.182)" fill="#263238"/>
      <path id="Path_173" data-name="Path 173" d="M381.57,410.859a3.5,3.5,0,0,1-2.624-.716,1.059,1.059,0,0,1,0-1.238,1.238,1.238,0,0,1,.82-.611c1.61-.358,4.622,1.7,4.757,1.789a.3.3,0,0,1,.1.268.239.239,0,0,1-.194.194A13.935,13.935,0,0,1,381.57,410.859Zm-1.372-2.088h-.313a.7.7,0,0,0-.477.358c-.239.418-.089.6,0,.656.462.626,2.7.626,4.339.358A8.62,8.62,0,0,0,380.2,408.8Z" transform="translate(-202.677 37.278)" fill="#d98209"/>
      <path id="Path_174" data-name="Path 174" d="M383.586,411.444h-.119c-1.133-.626-3.325-2.982-3.1-4.235a.85.85,0,0,1,.835-.686,1.491,1.491,0,0,1,1.1.328c1.268,1.044,1.491,4.205,1.491,4.339a.239.239,0,0,1-.119.239A.207.207,0,0,1,383.586,411.444Zm-2.207-4.473h-.06c-.343,0-.373.209-.388.268-.134.731,1.268,2.535,2.386,3.385a6.247,6.247,0,0,0-1.282-3.43.954.954,0,0,0-.716-.194Z" transform="translate(-201.889 36.424)" fill="#d98209"/>
      <path id="Path_175" data-name="Path 175" d="M337.65,410.869c-1.4,0-2.759-.194-3.221-.82a.984.984,0,0,1,0-1.133,1.312,1.312,0,0,1,.835-.611c1.8-.492,5.651,1.685,5.815,1.774a.268.268,0,0,1,.119.268.253.253,0,0,1-.209.209,18.153,18.153,0,0,1-3.34.313Zm-1.745-2.117a1.714,1.714,0,0,0-.492,0,.76.76,0,0,0-.507.358c-.194.328-.119.477,0,.567.492.686,3.266.731,5.323.447a11.735,11.735,0,0,0-4.324-1.342Z" transform="translate(-224.531 37.268)" fill="#d98209"/>
      <path id="Path_176" data-name="Path 176" d="M340.021,411.448h-.1c-1.327-.582-3.937-2.982-3.743-4.19,0-.3.254-.656.969-.731a1.819,1.819,0,0,1,1.491.447c1.4,1.133,1.685,4.086,1.7,4.22a.228.228,0,0,1-.313.253Zm-2.669-4.473h-.164c-.462,0-.492.239-.507.3-.119.746,1.67,2.609,2.982,3.415a5.965,5.965,0,0,0-1.491-3.37,1.3,1.3,0,0,0-.761-.313Z" transform="translate(-223.591 36.42)" fill="#d98209"/>
      <path id="Path_177" data-name="Path 177" d="M350.8,417.995h-10.96L338.75,392.63h10.96Z" transform="translate(-222.321 29.605)" fill="#e4897b"/>
      <path id="Path_178" data-name="Path 178" d="M396.362,417.995H385.4l-5.5-25.364h10.945Z" transform="translate(-202.11 29.605)" fill="#e4897b"/>
      <path id="Path_179" data-name="Path 179" d="M388.7,408.79h12.3a.969.969,0,0,1,.939.76l2.162,9.737a1.61,1.61,0,0,1-1.61,1.938c-4.295-.075-6.382-.328-11.8-.328-3.325,0-10.185.358-14.792.358s-5.189-4.474-3.31-4.965c8.44-1.849,11.616-4.4,14.315-6.815A2.654,2.654,0,0,1,388.7,408.79Z" transform="translate(-206.187 37.542)" fill="#263238"/>
      <path id="Path_180" data-name="Path 180" d="M348.254,408.79h11.929a.969.969,0,0,1,.939.76l2.162,9.737a1.6,1.6,0,0,1-1.581,1.938c-4.309-.075-10.542-.328-15.97-.328-6.337,0-11.825.358-19.266.358-4.473,0-5.741-4.474-3.862-4.965,8.574-1.879,15.568-2.073,22.979-6.636a5.009,5.009,0,0,1,2.669-.865Z" transform="translate(-230.662 37.542)" fill="#263238"/>
      <path id="Path_181" data-name="Path 181" d="M367.974,187.792a252.266,252.266,0,0,1-27.3-3.623c-4.473-.865-9.036-1.834-13.57-3.057a109.055,109.055,0,0,1-13.659-4.473c-1.148-.477-2.311-1-3.46-1.491a30.518,30.518,0,0,1-3.728-2.177c-2.147-1.417-4-2.893-5.83-4.354-3.653-2.982-7.038-5.965-10.438-9.021-6.665-6.173-12.988-12.556-19.087-19.266l5.487-6.129,21.637,15.553c3.564,2.565,7.172,5.085,10.721,7.456,1.76,1.178,3.564,2.281,5.219,3.221a18.132,18.132,0,0,0,2.147,1.044c.88.343,1.775.686,2.714,1.014A161.042,161.042,0,0,0,343.474,168c8.514,1.342,17.312,2.445,25.812,3.34Z" transform="translate(-255.646 -97.324)" fill="#e4897b"/>
      <path id="Path_182" data-name="Path 182" d="M373.934,159.01c10.274,2.356,20.652,32.373,20.652,32.373l-21.13,15.165s-5.965-13.987-11.72-26.214C355.712,167.524,363.436,156.609,373.934,159.01Z" transform="translate(-212.069 -85.302)" fill="#d98209"/>
      <path id="Path_183" data-name="Path 183" d="M373.934,159.01c10.274,2.356,20.652,32.373,20.652,32.373l-21.13,15.165s-5.965-13.987-11.72-26.214C355.712,167.524,363.436,156.609,373.934,159.01Z" transform="translate(-212.069 -85.302)" opacity="0.4"/>
      <path id="Path_184" data-name="Path 184" d="M366.63,169.9l-4.19,9.379c4.339,9.364,8.306,18.639,9.364,21.115C371.655,189.315,369.553,175.566,366.63,169.9Z" transform="translate(-210.686 -79.79)" fill="#d98209"/>
      <path id="Path_185" data-name="Path 185" d="M366.63,169.9l-4.19,9.379c4.339,9.364,8.306,18.639,9.364,21.115C371.655,189.315,369.553,175.566,366.63,169.9Z" transform="translate(-210.686 -79.79)" opacity="0.6"/>
      <path id="Path_186" data-name="Path 186" d="M329.843,160.4s-11.661,13.167-.656,94.688h58.587c.418-8.947-5.234-52.876,3.43-95.255a152.936,152.936,0,0,0-19.609-2.475,216.627,216.627,0,0,0-24.9,0,109.606,109.606,0,0,0-16.85,3.042Z" transform="translate(-229.339 -86.126)" fill="#d98209"/>
      <path id="Path_187" data-name="Path 187" d="M329.843,160.4s-11.661,13.167-.656,94.688h58.587c.418-8.947-5.234-52.876,3.43-95.255a152.936,152.936,0,0,0-19.609-2.475,216.627,216.627,0,0,0-24.9,0,109.606,109.606,0,0,0-16.85,3.042Z" transform="translate(-229.339 -86.126)" opacity="0.4"/>
      <path id="Path_188" data-name="Path 188" d="M325.45,169.9c-.388,3.087-.686,6.74-.88,11.049a61.256,61.256,0,0,0,16.313-7.665Z" transform="translate(-229.285 -79.79)" fill="#d98209"/>
      <path id="Path_189" data-name="Path 189" d="M325.45,169.9c-.388,3.087-.686,6.74-.88,11.049a61.256,61.256,0,0,0,16.313-7.665Z" transform="translate(-229.285 -79.79)" opacity="0.6"/>
      <path id="Path_190" data-name="Path 190" d="M354.77,178.49c-7.843,6.949-37.786,6.248-37.786,6.248L316,155.75a220.935,220.935,0,0,0,30.524,2.207C363.21,157.614,363.329,170.826,354.77,178.49Z" transform="translate(-233.495 -86.739)" fill="#d98209"/>
      <path id="Path_191" data-name="Path 191" d="M354.77,178.49c-7.843,6.949-37.786,6.248-37.786,6.248L316,155.75a220.935,220.935,0,0,0,30.524,2.207C363.21,157.614,363.329,170.826,354.77,178.49Z" transform="translate(-233.495 -86.739)" opacity="0.4"/>
      <path id="Path_192" data-name="Path 192" d="M279.873,137.133l-7.456-8.783L264.38,137.3s4.951,8.321,12.809,7.008Z" transform="translate(-258.848 -100.197)" fill="#e4897b"/>
      <path id="Path_193" data-name="Path 193" d="M263.563,121.48l-2.893,11.467,5.472,7.665,8.037-8.887Z" transform="translate(-260.67 -103.571)" fill="#e4897b"/>
      <path id="Path_194" data-name="Path 194" d="M338.75,392.64l.567,13.062h10.96l-.567-13.062Z" transform="translate(-222.321 29.61)" fill="#ce6f64"/>
      <path id="Path_195" data-name="Path 195" d="M390.86,392.64H379.9l2.833,13.062h10.96Z" transform="translate(-202.11 29.61)" fill="#ce6f64"/>
      <path id="Path_196" data-name="Path 196" d="M345.475,129.645c-9.827-4.473-12.928-24.351,15.344-19.385,0,0-4.265,4.712,4.384,7.694S366.62,139.353,345.475,129.645Z" transform="translate(-222.455 -109.47)" fill="#263238"/>
      <path id="Path_197" data-name="Path 197" d="M368.267,139.206c-2.818,10.438-3.922,16.79-10.438,21.159-9.752,6.561-21.875-.969-22.263-12.108-.343-10.006,4.324-25.5,15.583-27.616a14.822,14.822,0,0,1,17.118,18.565Z" transform="translate(-223.893 -104.119)" fill="#e4897b"/>
      <path id="Path_198" data-name="Path 198" d="M357.438,114.043c6.7,3.728,15.762,5.965,14.911,11.273-1.118,6.487,5.473,2.431,3.937,12.078-1,6.308-12.63,25.424-20.876,24.5-12.317-1.491-10.751-20.22-10.8-30.091C344.584,125.972,344.316,106.691,357.438,114.043Z" transform="translate(-219.462 -108.033)" fill="#263238"/>
      <path id="Path_199" data-name="Path 199" d="M344.645,119.11c-2.982.7-6.934,17.894,4.623,19.474C362.554,140.389,344.645,119.11,344.645,119.11Z" transform="translate(-220.969 -104.735)" fill="#263238"/>
      <path id="Path_200" data-name="Path 200" d="M347.433,126.722c-3.653.328-11.929-4.071-10.915-10.692C336.518,115.985,341.752,123.769,347.433,126.722Z" transform="translate(-223.459 -106.248)" fill="#263238"/>
      <path id="Path_201" data-name="Path 201" d="M350.67,134.951a12.242,12.242,0,0,1-5.413,5.741c-3.146,1.64-4.921-.746-4.2-3.907.641-2.833,3.057-7.113,6.293-7.456S351.967,131.968,350.67,134.951Z" transform="translate(-221.268 -99.729)" fill="#e4897b"/>
      <path id="Path_202" data-name="Path 202" d="M358.45,128.6a14.688,14.688,0,0,0,8.619-10.93S371.99,131.344,358.45,128.6Z" transform="translate(-212.645 -105.442)" fill="#263238"/>
      <path id="Path_203" data-name="Path 203" d="M369.138,125.887a7.56,7.56,0,0,0-7.128-.7S366.6,119.237,369.138,125.887Z" transform="translate(-210.897 -102.953)" fill="#263238"/>
      <path id="Path_204" data-name="Path 204" d="M341.57,222.8s12.436,83.713,19.251,115.072c7.456,34.3,35.639,148.757,35.639,148.757h20.056s-18.565-111.643-22.83-145.7c-4.623-36.906-14.315-118.189-14.315-118.189Z" transform="translate(-220.936 -53.837)" fill="#d98209"/>
      <path id="Path_205" data-name="Path 205" d="M341.57,222.8s12.436,83.713,19.251,115.072c7.456,34.3,35.639,148.757,35.639,148.757h20.056s-18.565-111.643-22.83-145.7c-4.623-36.906-14.315-118.189-14.315-118.189Z" transform="translate(-220.936 -53.837)" fill="#fff" opacity="0.5"/>
      <path id="Path_206" data-name="Path 206" d="M376.231,394.75c-.089,0,2.073,7.709,2.073,7.709H400.88l-.418-6.874Z" transform="translate(-203.913 30.646)" fill="#d98209"/>
      <path id="Path_207" data-name="Path 207" d="M376.231,394.75c-.089,0,2.073,7.709,2.073,7.709H400.88l-.418-6.874Z" transform="translate(-203.913 30.646)" opacity="0.1"/>
      <path id="Path_208" data-name="Path 208" d="M347.906,242.819c14.375,2.818,12.854,56.425,11.124,84-4.145-19.489-10.214-56.992-14.36-83.609a4.906,4.906,0,0,1,3.236-.388Z" transform="translate(-219.413 -44.033)" fill="#d98209"/>
      <path id="Path_209" data-name="Path 209" d="M347.906,242.819c14.375,2.818,12.854,56.425,11.124,84-4.145-19.489-10.214-56.992-14.36-83.609a4.906,4.906,0,0,1,3.236-.388Z" transform="translate(-219.413 -44.033)" fill="#fff" opacity="0.4"/>
      <path id="Path_210" data-name="Path 210" d="M327.882,222.78s-1.491,81.894-.313,115.311c1.238,34.744,13.42,148.519,13.42,148.519h18.55s.686-111.747,1.491-145.865c.91-37.2,5.4-117.965,5.4-117.965Z" transform="translate(-228.035 -53.817)" fill="#d98209"/>
      <path id="Path_211" data-name="Path 211" d="M327.882,222.78s-1.491,81.894-.313,115.311c1.238,34.744,13.42,148.519,13.42,148.519h18.55s.686-111.747,1.491-145.865c.91-37.2,5.4-117.965,5.4-117.965Z" transform="translate(-228.035 -53.817)" fill="#fff" opacity="0.5"/>
      <path id="Path_212" data-name="Path 212" d="M343.138,471.265a.179.179,0,0,1-.179-.164c-3.281-31.493-10.99-107.691-11.929-135.024-1-27.9-.089-90.5.209-109.018a.179.179,0,0,1,.179-.179h0a.194.194,0,0,1,.194.179c-.3,18.52-1.208,81.119-.209,109,.969,27.333,8.678,103.5,11.929,134.994a.209.209,0,0,1-.179.209Z" transform="translate(-226.336 -51.804)" fill="#d98209"/>
      <path id="Path_213" data-name="Path 213" d="M343.138,471.265a.179.179,0,0,1-.179-.164c-3.281-31.493-10.99-107.691-11.929-135.024-1-27.9-.089-90.5.209-109.018a.179.179,0,0,1,.179-.179h0a.194.194,0,0,1,.194.179c-.3,18.52-1.208,81.119-.209,109,.969,27.333,8.678,103.5,11.929,134.994a.209.209,0,0,1-.179.209Z" transform="translate(-226.336 -51.804)" fill="#fff" opacity="0.4"/>
      <path id="Path_214" data-name="Path 214" d="M334,394.75c-.075,0,1.059,7.709,1.059,7.709h22.561l.611-6.874Z" transform="translate(-224.655 30.646)" fill="#d98209"/>
      <path id="Path_215" data-name="Path 215" d="M334,394.75c-.075,0,1.059,7.709,1.059,7.709h22.561l.611-6.874Z" transform="translate(-224.655 30.646)" opacity="0.1"/>
    </g>
  </g>
</svg>
